<?xml version="1.0" encoding="utf-8"?>
<!-- Generator: Adobe Illustrator 17.1.0, SVG Export Plug-In . SVG Version: 6.00 Build 0)  -->
<!DOCTYPE svg PUBLIC "-//W3C//DTD SVG 1.1//EN" "http://www.w3.org/Graphics/SVG/1.1/DTD/svg11.dtd">
<svg version="1.1" id="Layer_1" xmlns="http://www.w3.org/2000/svg" xmlns:xlink="http://www.w3.org/1999/xlink" x="0px" y="0px"
	 viewBox="0 0 396.109 436.452" enable-background="new 0 0 396.109 436.452" xml:space="preserve">
<g>
	<g>
		<path fill="#FFFFFF" d="M330.247,436.452H153.51c-23.208,0-44.834-12.486-56.438-32.585L8.704,250.811
			c-11.605-20.099-11.606-45.07,0-65.17L97.071,32.585C108.675,12.486,130.301,0,153.51,0h176.738
			c23.207,0,44.832,12.485,56.438,32.582l0.589,1.021c11.779,20.399,11.779,44.762,0,65.167
			c-11.779,20.405-32.879,32.586-56.439,32.586H212.221c-12.647,0-24.432,6.804-30.756,17.757l-29.647,51.357
			c-6.323,10.952-6.323,24.558-0.001,35.507l29.648,51.357c6.323,10.954,18.107,17.759,30.755,17.759h118.614
			c23.56,0,44.66,12.182,56.439,32.586s11.778,44.768-0.003,65.171l-0.579,1.005C375.079,423.967,353.454,436.452,330.247,436.452z
			 M153.51,29.658c-12.647,0-24.43,6.803-30.754,17.756L34.388,200.47c-6.323,10.952-6.323,24.559,0,35.512l88.367,153.056
			c6.323,10.952,18.108,17.756,30.754,17.756h176.738c12.645,0,24.43-6.803,30.753-17.754l0.579-1.005
			c6.427-11.131,6.428-24.406,0.01-35.523c-6.42-11.119-17.917-17.757-30.755-17.757H212.221c-23.21,0-44.837-12.487-56.441-32.589
			l-29.647-51.356c-11.602-20.098-11.602-45.067,0-65.164l29.647-51.357c11.605-20.101,33.232-32.588,56.441-32.588h118.614
			c12.838,0,24.335-6.638,30.753-17.757c6.42-11.119,6.418-24.394-0.001-35.512l-0.589-1.021c-6.32-10.947-18.105-17.75-30.75-17.75
			H153.51z"/>
	</g>
	<g>
		<path fill="#FFFFFF" d="M334.45,378.188H149.747L57.381,218.226l92.366-159.962H334.45l19.321,33.463
			c3.883,6.724,3.883,14.752,0.001,21.477c-3.883,6.725-10.837,10.739-18.6,10.739H200.751c-8.077,0-15.603,4.346-19.642,11.341
			l-41.336,71.604c-4.037,6.993-4.037,15.683,0.001,22.677l41.335,71.604c4.038,6.995,11.565,11.341,19.642,11.341h135.966
			c7.442,0,14.107,3.848,17.828,10.293c3.72,6.444,3.72,14.14-0.001,20.584L334.45,378.188z M158.309,363.359h167.579l15.814-27.386
			c1.5-2.598,0.5-4.89,0-5.755c-0.5-0.866-1.985-2.879-4.985-2.879H200.751c-13.359,0-25.806-7.187-32.484-18.755l-41.336-71.604
			c-6.677-11.568-6.677-25.94,0-37.507l41.336-71.604c6.679-11.569,19.126-18.756,32.484-18.756h134.421
			c3.464,0,5.18-2.324,5.756-3.324c0.578-0.999,1.732-3.648,0-6.647l-15.041-26.049H158.309L74.505,218.226L158.309,363.359z"/>
	</g>
</g>
</svg>
